<svg xmlns="http://www.w3.org/2000/svg" viewBox="0 0 24 24" width="20" height="20" fill="none">
  <path d="M20.335 7.055l.675-1.61-.96-1.06h-2.07l-.69-1.845L15.69 1H8.31L6.71 2.54l-.69 1.845H3.95l-.96 1.06.675 1.61S2.94 8.45 3.06 8.69c.12.24 1.53 3.795 1.695 4.2.165.405 1.005 2.88 1.185 3.345.18.465 1.275 2.31 1.74 2.955.465.645 2.34 2.505 2.88 2.82.54.315 1.095.645 1.44.645s.9-.33 1.44-.645c.54-.315 2.415-2.175 2.88-2.82.465-.645 1.56-2.49 1.74-2.955.18-.465 1.02-2.94 1.185-3.345.165-.405 1.575-3.96 1.695-4.2.12-.24-.705-1.635-.705-1.635z" fill="#FB542B"/>
  <path d="M16.29 8.865s.555-.57.555-1.14c0-.57-.285-1.005-.585-1.2-.3-.195-1.425-.675-1.68-.78-.255-.105-1.515-.615-1.71-.69a12.24 12.24 0 00-.87-.3s-.57.27-.87.39c-.3.12-1.455.585-1.71.69-.255.105-1.38.585-1.68.78-.3.195-.585.63-.585 1.2 0 .57.555 1.14.555 1.14s-.375.33-.375.81c0 .48.39.96.39.96s-.285.42-.165.9c.12.48.615.87.615.87s-.195.525.06.975c.255.45.96.81.96.81s-.12.51.285.87c.405.36 1.44 1.005 2.19 1.32.75.315 1.08.21 1.08.21h.15s.33.105 1.08-.21c.75-.315 1.785-.96 2.19-1.32.405-.36.285-.87.285-.87s.705-.36.96-.81c.255-.45.06-.975.06-.975s.495-.39.615-.87c.12-.48-.165-.9-.165-.9s.39-.48.39-.96c0-.48-.375-.81-.375-.81z" fill="white"/>
</svg>
